<svg width="348" height="321" viewBox="0 0 348 321" fill="none" xmlns="http://www.w3.org/2000/svg">
<path fill-rule="evenodd" clip-rule="evenodd" d="M160.721 0.90927C258.794 -7.79073 258.991 47.5255 303.187 99.0848C347.383 150.644 356.85 174.031 340.186 233.469C323.522 292.905 267.375 339.545 197.91 313.105C128.444 286.665 88.6534 312.061 44.837 288.587C1.02062 265.112 -15.2721 219.849 16.823 166.462C48.9181 113.076 39.7593 11.6894 160.721 0.90927Z" fill="#EAF1F6"/>
<mask id="mask0" mask-type="alpha" maskUnits="userSpaceOnUse" x="0" y="0" width="348" height="321">
<path fill-rule="evenodd" clip-rule="evenodd" d="M160.721 0.90927C258.794 -7.79073 258.991 47.5255 303.187 99.0848C347.383 150.644 356.85 174.031 340.186 233.469C323.522 292.905 267.375 339.545 197.91 313.105C128.444 286.665 88.6534 312.061 44.837 288.587C1.02062 265.112 -15.2721 219.849 16.823 166.462C48.9181 113.076 39.7593 11.6894 160.721 0.90927Z" fill="#EAF1F6"/>
</mask>
<g mask="url(#mask0)">
<g style="mix-blend-mode:multiply" opacity="0.2">
<path d="M196.847 91.0388V92.4619H195.45V89.3341H193.771V87.2906H192.864V83.7562H190.967L187.109 85.0021V92.0293H185.253V80.3104H181.802V76.8177H179.159V72.491L178.377 71.7038V66.3553L177.403 65.3856V63.1858H175.317V64.8435L174.52 65.6411V71.9384H173.722V91.1952L172.711 90.1786V89.4905H170.725V78.194H170.167V75.7751H167.967V78.3191H166.961V72.3815L165.272 70.6873V64.0251L163.135 61.8929V66.7202H159.642V83.8188H158.74V84.705H158.307V85.7476H157.265V69.8845H154.095L153.126 68.9148H151.703L150.54 70.0773V79.3148H148.34V82.5468H146.875V77.2869H146.229V75.6917H143.622V82.8075H141.423V87.202H140.776V94.6618H139.671V88.8128H138.545V84.2723H137.21V72.8037H132.639V79.3565H130.032V89.9232H123.219V98.7175H200.194V91.0388H196.847Z" fill="#0059A3"/>
</g>
<path opacity="0.3" d="M198.297 90.1109V95.3395L408.912 117.14V91.9146L399.451 91.7321V69.7646L380.34 70.8384V81.5146L372.812 81.6398V45.8004L341.164 50.6433V82.1767L336.78 82.2549V77.7769L329.873 78.0324V76.2339L316.846 76.8177V78.512L313.061 78.6475V82.6563L308.515 82.7345V62.5706L297.719 63.8426V59.6149L285.807 61.2934V89.5374L283.925 89.5009V80.863L280.021 80.9777V78.465L275.746 78.6579V76.7343L273.817 76.8438V47.088L260.165 50.3253V55.3454L253.555 56.6956V49.2201L245.563 51.2636V56.1065L243.806 56.4923V42.7717L242.456 43.2044V36L238.63 37.444V44.4398L237.832 44.6953V57.8059L237.201 57.9467V70.7029L235.7 70.8853V49.5798L234.235 50.0021V47.5468L233.49 47.7762V49.4495L230.883 50.2158V50.9717L230.597 51.0499V59.4011L229.663 59.6044V58.1187L223.882 59.4637V86.6494L222.391 86.6442V82.7136L221.333 82.7449V79.3617L220.953 79.3877V78.2669L220.541 78.2982V79.4138L219.754 79.4607V82.7918L219.555 82.8022V86.6338L218.44 86.6234V79.5389L216.939 79.6275V78.5484L215.005 78.684V76.4007L214.796 76.4163V79.7579L213.978 79.8048V84.5069L212.94 84.5225V86.6025L211.986 86.5973V82.0724L208.624 82.208V83.9752L207.654 83.996V83.1567L206.612 83.188V81.7544L205.564 81.8014V83.2193L205.178 83.2349V84.0482L205.001 84.0534V89.3393L204.214 89.3133V87.9579L203.499 87.9423V86.3054L200.768 86.3002V89.1986L200.262 89.183V90.1995L200.002 90.1891V92.2586L199.345 92.2117V90.1578L198.297 90.1109Z" fill="#0059A3"/>
<path opacity="0.3" d="M123.077 92.8113V95.6889L-86.5898 116.822V56.7061L-29.1218 64.5152V77.0785L-9.84416 78.4651V91.5497L-4.44872 91.5393V93.807L-1.23752 93.7548V85.9145L12.6708 86.3472V93.5463L15.2251 93.5098V93.8018L22.5337 93.6766V82.1664L23.4773 82.2237V90.5749L30.4471 90.6062V79.4921L41.1754 80.4096V75.3478L48.9532 76.3278V90.3716L53.2122 90.4029V59.323L64.1334 62.3726V91.4768L68.1214 91.4663V93.0563L73.1884 92.9625V63.9469L78.4639 65.4743V59.0102L81.5083 60.1102V66.3553L85.4076 67.4814V84.4653L90.6988 84.9032V53.9745L95.3488 56.2317V70.3641L97.2516 70.9115V63.0816L101.26 64.6924V82.9014L104.487 83.308V68.4301L107.172 69.4049V83.6468L107.808 83.725V92.3265L109.268 92.2952V87.2907L111.634 87.4471V89.8659L112.583 89.892V81.5564L114.819 81.9526V86.2116L115.184 86.2429V78.3974L118.938 79.3201V87.7338L121.826 87.9424V92.8582L123.077 92.8113Z" fill="#0059A3"/>
<path d="M-73.2939 129.068L144.249 91.1796V91.6696L-73.2939 157.791V129.068Z" fill="url(#paint0_linear)"/>
<path d="M-73.2939 129.068L144.249 91.1796L-73.2939 116.525V129.068Z" fill="url(#paint1_linear)"/>
<path d="M393.611 129.068L176.067 91.1796V91.6696L393.611 157.791V129.068Z" fill="url(#paint2_linear)"/>
<path d="M393.611 129.068L176.067 91.1796L393.611 116.525V129.068Z" fill="url(#paint3_linear)"/>
<path d="M144.248 91.6694H176.068L931.321 320.796H-611L144.248 91.6694Z" fill="url(#paint4_linear)"/>
<path d="M354.964 294.7H365.056L286.804 215.89H280.402L354.964 294.7Z" fill="#D7DFE6"/>
<path d="M241.686 174.958H246.169L226.766 155.419H223.195L241.686 174.958Z" fill="#D7DFE6"/>
<path d="M209.311 140.739H212.194L203.546 132.028H201.069L209.311 140.739Z" fill="#D7DFE6"/>
<path d="M193.976 124.532H196.098L191.223 119.622H189.331L193.976 124.532Z" fill="#D7DFE6"/>
<path d="M185.029 115.076H186.707L183.579 111.927H182.047L185.029 115.076Z" fill="#D7DFE6"/>
<path d="M179.17 108.878H180.562L178.389 106.688H177.096L179.17 108.878Z" fill="#D7DFE6"/>
<path d="M175.031 104.504H176.22L174.619 102.893H173.509L175.031 104.504Z" fill="#D7DFE6"/>
<path d="M171.955 101.256H172.987L171.762 100.021H170.787L171.955 101.256Z" fill="#D7DFE6"/>
<path d="M169.577 98.7437H170.494L169.525 97.7636H168.654L169.577 98.7437Z" fill="#D7DFE6"/>
<path d="M167.685 96.7419H168.504L167.722 95.9495H166.935L167.685 96.7419Z" fill="#D7DFE6"/>
<path d="M166.142 95.11H166.888L166.242 94.4584H165.527L166.142 95.11Z" fill="#D7DFE6"/>
<path d="M164.865 93.7598H165.543L165.001 93.2072H164.339L164.865 93.7598Z" fill="#D7DFE6"/>
<path d="M163.782 92.6185H164.413L163.949 92.1493H163.339L163.782 92.6185Z" fill="#D7DFE6"/>
<path d="M-34.6459 294.7H-44.7383L33.514 215.89H39.9155L-34.6459 294.7Z" fill="#D7DFE6"/>
<path d="M78.6306 174.958H74.1475L93.5502 155.419H97.1211L78.6306 174.958Z" fill="#D7DFE6"/>
<path d="M111.01 140.739H108.122L116.77 132.028H119.247L111.01 140.739Z" fill="#D7DFE6"/>
<path d="M126.34 124.532H124.219L129.093 119.622H130.99L126.34 124.532Z" fill="#D7DFE6"/>
<path d="M135.287 115.076H133.608L136.736 111.927H138.269L135.287 115.076Z" fill="#D7DFE6"/>
<path d="M141.152 108.878H139.755L141.934 106.688H143.222L141.152 108.878Z" fill="#D7DFE6"/>
<path d="M145.292 104.504H144.104L145.704 102.893H146.814L145.292 104.504Z" fill="#D7DFE6"/>
<path d="M148.366 101.256H147.328L148.553 100.021H149.528L148.366 101.256Z" fill="#D7DFE6"/>
<path d="M150.737 98.7437H149.825L150.79 97.7636H151.665L150.737 98.7437Z" fill="#D7DFE6"/>
<path d="M152.636 96.7419H151.812L152.594 95.9495H153.382L152.636 96.7419Z" fill="#D7DFE6"/>
<path d="M154.175 95.11H153.43L154.081 94.4584H154.795L154.175 95.11Z" fill="#D7DFE6"/>
<path d="M155.455 93.7598H154.772L155.32 93.2072H155.977L155.455 93.7598Z" fill="#D7DFE6"/>
<path d="M156.534 92.6185H155.903L156.372 92.1493H156.977L156.534 92.6185Z" fill="#D7DFE6"/>
<path opacity="0.8" d="M134.781 97.1379C135.156 97.0545 136.965 97.1379 137.539 97.1379C138.112 97.1379 141.381 97.0649 142.23 97.0336C143.08 97.0024 145.598 97.0336 145.739 97.0336C145.879 97.0336 145.942 97.0336 145.874 97.1066C145.807 97.1796 145.53 97.2786 144.832 97.3151C144.133 97.3516 139.681 97.3673 137.586 97.3464C135.49 97.3256 134.328 97.2422 134.781 97.1379Z" fill="#12406D"/>
<path d="M135.818 95.6159C135.818 95.2875 142.673 95.1989 145.202 95.4282C145.78 95.4804 145.942 95.8348 145.932 95.887C145.9 96.158 144.988 96.4083 144.368 96.4083H137.487C136.731 96.3926 135.855 95.986 135.818 95.6159Z" fill="#12406D"/>
<path d="M137.263 94.2397H135.986C135.862 94.7512 135.818 95.2787 135.855 95.8036C135.814 96.2868 135.856 96.7736 135.981 97.2423H137.263C137.381 96.73 137.423 96.2031 137.388 95.6784C137.435 95.1952 137.393 94.7075 137.263 94.2397V94.2397Z" fill="#12406D"/>
<path d="M145.926 94.104H144.643C144.526 94.6165 144.484 95.1433 144.518 95.6679C144.473 96.1511 144.516 96.6384 144.643 97.1067H145.926C146.05 96.5953 146.094 96.0677 146.056 95.5428C146.097 95.0592 146.053 94.5723 145.926 94.104V94.104Z" fill="#12406D"/>
<path d="M145.515 94.2397H144.233C144.109 94.7512 144.065 95.2787 144.102 95.8036C144.061 96.2868 144.103 96.7736 144.228 97.2423H145.51C145.635 96.731 145.679 96.2033 145.64 95.6784C145.684 95.1952 145.642 94.7081 145.515 94.2397V94.2397Z" fill="#12406D"/>
<path d="M135.819 94.9538C135.797 93.8967 135.934 92.8424 136.225 91.826C136.595 90.6791 137.028 88.9954 137.721 88.6409C138.415 88.2864 139.363 88.1196 140.985 88.1196C142.606 88.1196 143.888 88.4428 144.384 88.9849C144.879 89.5271 144.993 90.0275 145.338 91.2265C145.338 91.2786 145.859 91.1275 145.947 91.3308C146.036 91.5341 145.499 91.5966 145.499 91.5966C145.57 91.7027 145.633 91.8143 145.687 91.9303C145.844 92.4811 145.94 93.0475 145.974 93.6193C146.009 94.164 145.987 94.711 145.906 95.2509C145.874 95.5168 144.962 95.7722 144.342 95.7722H137.461C136.731 95.7305 135.855 95.3239 135.819 94.9538Z" fill="url(#paint5_linear)"/>
<path d="M136.903 91.2579C136.903 91.2579 137.508 89.0632 137.743 88.9955C137.977 88.9277 139.77 88.8964 140.714 88.8964C141.658 88.8964 143.477 88.8964 143.649 89.0632C143.945 89.7649 144.192 90.486 144.389 91.2214C144.389 91.2214 142.127 91.456 140.412 91.456C138.697 91.456 136.903 91.2579 136.903 91.2579Z" fill="url(#paint6_linear)"/>
<path d="M144.106 89.0004L144.826 91.0856L145.264 91.2212C145.264 91.2212 144.742 89.5009 144.477 89.2298C144.211 88.9587 144.106 89.0004 144.106 89.0004Z" fill="url(#paint7_linear)"/>
<path fill-rule="evenodd" clip-rule="evenodd" d="M137.205 92.2064C137.207 92.3439 137.126 92.4691 136.999 92.5231C136.873 92.5772 136.726 92.5496 136.628 92.4531C136.53 92.3566 136.501 92.2104 136.553 92.0832C136.605 91.9559 136.729 91.8728 136.866 91.8728C137.051 91.8728 137.202 92.0213 137.205 92.2064Z" fill="#F8931F"/>
<path d="M137.169 93.1189C137.169 93.2564 137.086 93.3802 136.959 93.4324C136.831 93.4845 136.685 93.4545 136.589 93.3565C136.492 93.2586 136.464 93.112 136.519 92.9855C136.573 92.8591 136.698 92.7779 136.835 92.78C137.02 92.7829 137.169 92.9337 137.169 93.1189Z" fill="url(#paint8_linear)"/>
<path fill-rule="evenodd" clip-rule="evenodd" d="M143.919 92.2064C143.917 92.3444 143.999 92.4699 144.126 92.5237C144.253 92.5774 144.4 92.5488 144.497 92.4512C144.595 92.3536 144.624 92.2066 144.57 92.0796C144.516 91.9525 144.391 91.8707 144.253 91.8728C144.07 91.8756 143.922 92.0234 143.919 92.2064Z" fill="#F8931F"/>
<path d="M143.951 93.1188C143.951 93.306 144.103 93.4577 144.29 93.4577C144.477 93.4577 144.629 93.306 144.629 93.1188C144.629 92.9317 144.477 92.78 144.29 92.78C144.2 92.78 144.114 92.8157 144.05 92.8792C143.987 92.9428 143.951 93.0289 143.951 93.1188H143.951Z" fill="url(#paint9_linear)"/>
<path d="M138.107 92.2325C138.513 92.269 139.483 92.3785 140.526 92.3785C141.568 92.3785 142.835 92.2377 143.07 92.2117C143.304 92.1856 143.461 92.1074 143.461 92.3107C143.461 92.514 143.32 93.4836 142.986 93.5201C142.653 93.5566 141.641 93.6244 140.562 93.6244C139.483 93.6244 138.232 93.5931 138.065 93.5566C137.898 93.5201 137.726 92.5818 137.763 92.3785C137.799 92.1752 138.107 92.2325 138.107 92.2325Z" fill="url(#paint10_linear)"/>
<path d="M135.797 95.0892C135.735 94.5985 135.772 94.1004 135.906 93.6243C136.224 93.5224 136.573 93.6116 136.803 93.8537C136.933 94.1196 137.131 94.5262 137.324 94.5575C138.392 94.6674 139.466 94.7162 140.54 94.7034C142.276 94.7034 144.283 94.6461 144.393 94.5366C144.502 94.4271 144.732 93.3897 145.154 93.3272C145.423 93.2875 145.697 93.2875 145.967 93.3272C145.997 93.7733 145.997 94.2208 145.967 94.6669C145.925 95.1882 145.967 95.4072 145.503 95.5636C145.039 95.72 143.48 95.746 140.405 95.746C137.329 95.746 136.949 95.8346 136.386 95.5375C135.823 95.2404 135.843 95.3081 135.797 95.0892Z" fill="url(#paint11_linear)"/>
<path d="M183.805 97.8992C183.604 97.8703 183.407 97.8142 183.221 97.7324C183.137 97.7147 183.05 97.7147 182.966 97.7324C182.617 97.7257 182.268 97.6944 181.923 97.6386C181.667 97.5772 181.404 97.5527 181.141 97.5656C180.904 97.5892 180.665 97.5892 180.427 97.5656C180.229 97.5656 179.489 97.5031 179.254 97.4874C179.02 97.4718 177.101 97.5448 177.039 97.55C176.961 97.5808 176.881 97.6035 176.799 97.6177C176.653 97.6177 175.814 97.6177 175.694 97.6177C175.339 97.4934 174.991 97.3507 174.651 97.1903C174.213 97.0013 173.785 96.789 173.369 96.5543C173.259 96.2151 173.184 95.8658 173.145 95.5117C173.137 95.1791 173.152 94.8464 173.191 94.516C173.191 94.4587 175.855 93.9634 175.855 93.9634H185.025C185.025 93.9634 185.4 96.2519 185.348 96.4083C184.859 96.9305 184.344 97.4281 183.805 97.8992Z" fill="#12406D"/>
<path opacity="0.8" d="M186.214 98.6081C185.331 98.3998 184.434 98.2535 183.53 98.1702C183.305 98.1702 181.33 98.1076 180.996 98.1076C180.662 98.1076 178.051 98.1076 177.608 98.1076C177.165 98.1076 174.292 98.1493 174.094 98.1597C173.836 98.1879 173.582 98.2385 173.333 98.3109C173.38 98.3109 174.683 98.6393 174.933 98.6862C175.426 98.744 175.923 98.7684 176.419 98.7592C177.201 98.7592 181.846 98.7592 183.665 98.7592C185.484 98.7592 186.272 98.7071 186.214 98.6081Z" fill="#12406D"/>
<path d="M174.926 95.0214H176.052C176.182 95.0631 176.287 95.9076 176.287 96.9137C176.287 97.9198 176.188 98.66 176.057 98.6548H174.931C174.801 98.6131 174.691 97.7686 174.691 96.7677C174.691 95.7668 174.796 95.0057 174.926 95.0214Z" fill="#12406D"/>
<path d="M183.929 95.0214H185.165C185.305 95.0631 185.425 95.9076 185.425 96.9137C185.425 97.9198 185.311 98.66 185.17 98.6548H183.934C183.794 98.6131 183.674 97.7686 183.674 96.7677C183.674 95.7668 183.789 95.0057 183.929 95.0214Z" fill="#12406D"/>
<path d="M174.738 96.7837C174.696 97.2685 174.748 97.7569 174.889 98.2225C174.978 98.2538 175.046 97.6595 175.046 96.8932C175.09 96.4079 175.037 95.9187 174.889 95.4544C174.806 95.4283 174.738 96.0174 174.738 96.7837Z" fill="url(#paint12_linear)"/>
<path d="M173.326 94.9537H174.368C174.488 94.9902 174.587 95.7617 174.587 96.6792C174.587 97.5967 174.493 98.2744 174.379 98.2744H173.336C173.216 98.2379 173.117 97.4664 173.117 96.5489C173.117 95.6314 173.206 94.9381 173.326 94.9537Z" fill="#12406D"/>
<path d="M181.647 94.9537H182.742C182.867 94.9902 182.971 95.7617 182.971 96.6792C182.971 97.5967 182.872 98.2744 182.747 98.2744H181.653C181.522 98.2379 181.418 97.4664 181.418 96.5489C181.418 95.6314 181.522 94.9381 181.647 94.9537Z" fill="#12406D"/>
<path d="M173.155 96.5646C173.12 97.0062 173.161 97.4504 173.275 97.8783C173.397 97.4857 173.438 97.0725 173.395 96.6637C173.427 96.2222 173.387 95.7784 173.275 95.35C173.15 95.742 173.11 96.1558 173.155 96.5646Z" fill="url(#paint13_linear)"/>
<path d="M183.785 90.7365C183.56 90.5056 183.295 90.3182 183.003 90.1839C182.736 90.0569 182.448 89.9826 182.153 89.965C181.934 89.965 180.923 89.8294 179.698 89.8034C178.603 89.7862 177.509 89.8472 176.424 89.9858C175.955 90.0746 175.535 90.3301 175.241 90.7052C174.829 91.2469 174.48 91.8326 174.198 92.4516C174.093 92.7385 173.961 93.0144 173.802 93.2752C173.648 93.4301 173.516 93.6055 173.411 93.7965C173.29 93.9848 173.187 94.1837 173.103 94.3908C173.054 94.6377 173.036 94.8901 173.051 95.1415C173.051 95.3917 173.108 96.0068 173.108 96.0068V95.8296C173.108 95.8296 173.108 95.7827 173.108 95.3552C173.108 94.9277 173.108 94.4169 173.181 94.4951C173.29 94.7999 173.348 95.1203 173.353 95.4438C173.403 95.8802 173.476 96.3135 173.572 96.7419C173.592 96.8345 173.646 96.9163 173.724 96.9712C173.934 97.0431 174.148 97.1023 174.365 97.1485C174.47 97.1727 174.576 97.1902 174.683 97.2006C174.683 97.2006 174.641 96.3457 174.631 95.9547C174.612 95.5792 174.621 95.2029 174.657 94.8287C174.698 94.6984 174.756 94.6097 174.818 94.6932C174.971 95.004 175.068 95.3392 175.105 95.6836C175.148 96.0441 175.247 96.3957 175.397 96.7262C175.534 96.9309 175.739 97.0805 175.976 97.1485C176.231 97.1485 178.347 97.1172 180 97.1485C181.653 97.1798 183.222 97.1485 183.894 97.1485C184.567 97.1485 184.765 97.1485 184.994 96.9712C185.186 96.835 185.322 96.6327 185.375 96.403C185.438 96.0587 185.476 95.7103 185.489 95.3604C185.508 95.1842 185.486 95.006 185.427 94.8391C185.375 94.6932 185.286 94.5159 185.286 94.5159C185.286 94.5159 185.286 93.8799 185.286 93.6714C185.26 93.3842 185.175 93.1055 185.036 92.853C184.885 92.6549 184.749 92.5506 184.66 92.4464C184.572 92.3421 184.316 91.6957 184.139 91.3047C184.041 91.1034 183.922 90.913 183.785 90.7365Z" fill="url(#paint14_linear)"/>
<path d="M175.381 96.6843C175.381 96.6843 177.81 96.7365 180.834 96.7312H185.28C185.196 96.9412 185.022 97.1021 184.806 97.1691C184.435 97.2736 184.047 97.3037 183.664 97.2578C183.232 97.2265 182.455 97.2213 180.672 97.2056C178.889 97.19 177.492 97.2056 177.096 97.2369C176.7 97.2682 176.053 97.3516 175.782 97.1587C175.603 97.0451 175.463 96.8796 175.381 96.6843V96.6843Z" fill="url(#paint15_linear)"/>
<path d="M177.753 94.078C177.753 94.078 178.211 94.6619 180.703 94.5993C183.195 94.5368 183.372 94.078 183.372 94.078V93.6505C182.474 93.7455 181.57 93.7838 180.667 93.7652C179.651 93.782 178.635 93.7052 177.633 93.5359C177.633 93.5359 177.659 93.979 177.753 94.078Z" fill="url(#paint16_linear)"/>
<path d="M184.602 92.4722C184.602 92.4722 184.492 92.1438 184.294 91.6798C184.192 91.391 184.043 91.1214 183.851 90.8822C182.668 90.652 181.464 90.5507 180.259 90.5799C177.976 90.5799 176.61 90.7884 176.527 90.8666C176.353 91.2158 176.231 91.5879 176.162 91.9718C176.1 92.3679 176.084 92.4566 176.131 92.4931C176.178 92.5296 178.451 92.7329 180.614 92.7329C181.948 92.755 183.282 92.6678 184.602 92.4722Z" fill="#12406D"/>
<path d="M184.527 92.4306C184.527 92.4306 184.418 92.1282 184.225 91.6904C184.122 91.4174 183.974 91.1636 183.787 90.9397C182.623 90.7272 181.441 90.6329 180.258 90.6582C178.016 90.6582 176.661 90.8563 176.609 90.9293C176.439 91.2575 176.318 91.6087 176.249 91.9719C176.192 92.342 176.176 92.4254 176.218 92.4358C176.26 92.4462 178.501 92.6652 180.623 92.6652C181.929 92.6915 183.234 92.6131 184.527 92.4306Z" fill="url(#paint17_linear)"/>
<path d="M181.13 90.601C181.13 90.601 180.724 90.601 180.26 90.601H179.353C179.644 90.6999 179.952 90.7441 180.26 90.7313C180.555 90.7414 180.85 90.6972 181.13 90.601Z" fill="url(#paint18_linear)"/>
<path d="M173.905 93.1605C174.162 92.9674 174.454 92.8273 174.765 92.7486C175.443 92.5245 175.511 92.3994 175.537 92.3525C175.753 91.8579 175.941 91.3514 176.1 90.8355C176.082 90.7042 176.003 90.589 175.887 90.5244C175.771 90.4599 175.632 90.4534 175.511 90.5071C175.067 90.8554 174.722 91.3136 174.51 91.8364C174.276 92.262 174.073 92.7046 173.905 93.1605H173.905Z" fill="#12406D"/>
<path d="M175.21 91.2838C174.977 91.7596 174.776 92.2508 174.61 92.7539C174.37 92.8477 174.224 92.9207 174.136 92.9624C174.047 93.0041 174.084 92.8634 174.105 92.806C174.198 92.6027 174.344 92.2535 174.563 91.8364C174.758 91.3525 175.074 90.9269 175.481 90.6009C175.518 90.5818 175.559 90.5694 175.601 90.5645C175.554 90.6426 175.444 90.8303 175.21 91.2838Z" fill="url(#paint19_linear)"/>
<path d="M175.12 91.8677C175.297 91.423 175.512 90.994 175.761 90.5853C175.9 90.6344 176.001 90.757 176.022 90.9033C175.877 91.386 175.703 91.8596 175.5 92.3212C175.5 92.3629 175.417 92.4776 174.833 92.6809C174.869 92.5245 174.963 92.2482 175.12 91.8677Z" fill="url(#paint20_linear)"/>
<path d="M174.713 93.421C174.713 93.421 174.713 93.5513 174.682 93.6347C174.651 93.7181 174.635 93.8745 174.583 93.8432C174.531 93.8119 174.437 93.5044 174.515 93.4679C174.593 93.4314 174.724 93.3688 174.713 93.421Z" fill="url(#paint21_linear)"/>
<path d="M174.076 93.614C174.076 93.7421 174.053 93.8691 174.008 93.9893C173.977 94.0206 173.93 93.9267 173.909 93.8277C173.889 93.7286 173.909 93.713 173.909 93.6869C173.909 93.6609 174.045 93.5775 174.076 93.614Z" fill="url(#paint22_linear)"/>
<path d="M175.542 96.2361C175.476 95.7522 175.385 95.2719 175.271 94.7973C175.151 94.3385 175.072 94.1561 174.979 94.13C174.885 94.104 174.676 94.4584 174.671 94.5054C174.666 94.5523 174.801 94.5054 174.853 94.5888C174.906 94.6722 175.104 95.3655 175.234 95.8243C175.364 96.283 175.458 96.5853 175.489 96.528C175.535 96.4378 175.553 96.3364 175.542 96.2361Z" fill="url(#paint23_linear)"/>
<path d="M173.212 94.3855C173.268 94.5374 173.315 94.6923 173.353 94.8495C173.4 95.0319 173.452 95.4073 173.457 95.3134C173.447 94.9647 173.42 94.6167 173.374 94.2708C173.348 94.1249 173.342 94.0884 173.28 94.177C173.217 94.2656 173.186 94.3386 173.212 94.3855Z" fill="url(#paint24_linear)"/>
<path d="M174.508 95.3604C174.508 95.3239 174.393 95.4386 174.289 95.4438C174.184 95.4491 173.767 95.569 173.679 95.5846C173.59 95.6002 173.512 95.5325 173.496 95.5429C173.494 95.6175 173.507 95.6919 173.533 95.7618C173.533 95.7618 173.621 95.7618 173.934 95.7618C174.247 95.7618 174.455 95.7618 174.487 95.7097C174.507 95.5945 174.514 95.4773 174.508 95.3604Z" fill="url(#paint25_linear)"/>
<path d="M174.682 96.7679L174.041 96.721C173.738 96.721 173.566 96.6689 173.566 96.6689C173.586 96.7806 173.629 96.887 173.692 96.9816C173.965 97.0868 174.248 97.1653 174.536 97.2162C174.692 97.2162 174.698 97.2162 174.698 97.2162L174.682 96.7679Z" fill="url(#paint26_linear)"/>
<path d="M178.868 96.4289H180.745C181.417 96.4289 182.496 96.4289 182.621 96.4289C182.717 96.3867 182.792 96.3078 182.83 96.2097C182.867 96.1117 182.863 96.0028 182.819 95.9076C182.751 95.6049 182.472 95.3971 182.163 95.4175C181.74 95.4175 181.641 95.3811 180.677 95.3811C180.124 95.3604 179.57 95.3761 179.019 95.428C178.746 95.4976 178.541 95.7232 178.498 96.0014C178.483 96.1087 178.515 96.2173 178.586 96.2992C178.657 96.3811 178.76 96.4284 178.868 96.4289Z" fill="url(#paint27_linear)"/>
<path fill-rule="evenodd" clip-rule="evenodd" d="M185.024 93.1084C184.929 93.0083 184.787 92.9683 184.654 93.0042C184.221 93.1773 183.802 93.3847 183.403 93.6245C183.34 93.7079 183.293 94.0051 183.403 94.0207C183.88 94.0348 184.357 94.0139 184.831 93.9582C185.118 93.8956 185.227 93.8591 185.232 93.7601C185.247 93.5244 185.173 93.2917 185.024 93.1084Z" fill="#F8931F"/>
<path fill-rule="evenodd" clip-rule="evenodd" d="M177.725 94.0414C177.804 94.0414 177.725 93.5774 177.673 93.5201C177.215 93.3178 176.745 93.1437 176.266 92.9988C176.083 92.9529 175.891 92.9529 175.708 92.9988C175.604 93.0353 175.5 93.1187 175.494 93.1552C175.489 93.1917 175.494 93.7078 175.677 93.8381C176.007 93.9745 176.363 94.0367 176.719 94.0205C177.126 94.0049 177.637 94.0518 177.725 94.0414Z" fill="#F8931F"/>
<path d="M173.946 93.1083C174.011 92.9979 174.054 92.8756 174.071 92.7486C174.05 92.6401 173.952 92.5641 173.842 92.5713C173.685 92.5713 173.054 92.6495 173.018 92.7642C172.975 92.8907 173.04 93.0284 173.164 93.077C173.42 93.1355 173.686 93.1461 173.946 93.1083Z" fill="#12406D"/>
<path d="M173.874 93.0769C173.93 92.9789 173.968 92.8709 173.983 92.759C173.961 92.6681 173.879 92.6051 173.785 92.6078C173.645 92.6078 173.092 92.6808 173.061 92.7798C173.022 92.892 173.08 93.0145 173.191 93.0561C173.306 93.0769 173.827 93.1395 173.874 93.0769Z" fill="url(#paint28_linear)"/>
<path d="M173.815 93.4053C173.819 93.4252 173.832 93.442 173.851 93.451C173.869 93.4601 173.89 93.4606 173.909 93.4523C173.953 93.4444 173.985 93.4038 173.982 93.3584C173.982 93.3219 173.935 93.3011 173.888 93.3115C173.845 93.3231 173.816 93.3613 173.815 93.4053Z" fill="url(#paint29_linear)"/>
<path fill-rule="evenodd" clip-rule="evenodd" d="M193.391 96.9503L194.803 97.1797C194.983 97.2241 195.173 97.1814 195.316 97.0646C195.46 96.9478 195.54 96.7703 195.533 96.5854V88.9953C195.519 88.6025 195.196 88.2913 194.803 88.2916H193.391C193.215 88.286 193.044 88.3512 192.916 88.4728C192.789 88.5943 192.716 88.7619 192.713 88.938V96.184C192.732 96.5666 193.013 96.8849 193.391 96.9503ZM193.113 88.6735C193.188 88.6036 193.288 88.5673 193.39 88.573L194.803 88.6199C195.03 88.6198 195.217 88.7995 195.225 89.0266V96.5854C195.223 96.6892 195.174 96.7866 195.092 96.8504C195.01 96.9141 194.904 96.9374 194.803 96.9138L193.39 96.6897C193.169 96.6528 193.003 96.4657 192.994 96.2413V88.9431C192.995 88.8408 193.038 88.7434 193.113 88.6735Z" fill="#12406D"/>
<path d="M194.312 85.4819C194.312 85.4819 193.791 85.6279 193.76 85.9615C193.729 86.2951 193.65 104.608 193.65 105.422C193.71 106.46 193.831 107.494 194.015 108.518C194.076 108.759 194.205 108.978 194.385 109.149C194.385 109.149 194.458 106.636 195.016 106.157L195.569 105.677V85.3464L194.312 85.4819Z" fill="url(#paint30_linear)"/>
<path d="M195.137 86.6026C195.283 86.5609 195.408 86.7068 195.408 86.9258V96.9921C195.408 97.211 195.283 97.3987 195.137 97.4039L194.235 97.456C194.095 97.456 193.985 97.2996 193.985 97.0859V87.2959C193.969 87.1079 194.068 86.9286 194.235 86.8424L195.137 86.6026Z" fill="url(#paint31_linear)"/>
<path opacity="0.8" d="M183.487 116.431C184.4 116.306 202.306 116.53 205.309 116.431C208.312 116.332 215.323 116.144 215.803 116.191C216.282 116.238 218.612 116.53 218.852 116.624C219.092 116.718 223.205 117.145 223.643 117.302C224.081 117.458 224.467 117.302 224.081 117.448C223.695 117.594 206.179 117.886 200.101 117.886C194.023 117.886 186.99 117.74 185.155 117.594C183.32 117.448 182.419 116.577 183.487 116.431Z" fill="#12406D"/>
<path d="M195.012 105.333H198.4C198.791 105.463 199.115 108.143 199.115 111.323C199.115 114.503 198.807 116.864 198.421 116.854H195.033C194.637 116.728 194.313 114.044 194.313 110.864C194.313 107.684 194.626 105.296 195.012 105.333Z" fill="#12406D"/>
<path d="M194.454 110.932C194.454 113.35 194.663 115.394 194.913 115.488C195.163 115.582 195.372 113.7 195.372 111.281C195.372 108.862 195.168 106.819 194.913 106.72C194.657 106.621 194.454 108.508 194.454 110.932Z" fill="url(#paint32_linear)"/>
<path d="M198.374 106.089H201.757C202.153 106.219 202.471 108.899 202.471 112.079C202.471 115.258 202.164 117.62 201.783 117.604H198.389C197.993 117.474 197.67 114.795 197.67 111.615C197.67 108.435 197.983 106.031 198.374 106.089Z" fill="#12406D"/>
<path d="M197.816 111.667C197.816 114.085 198.02 116.129 198.275 116.228C198.531 116.327 198.734 114.44 198.734 112.016C198.734 109.592 198.525 107.554 198.275 107.46C198.025 107.366 197.816 109.248 197.816 111.667Z" fill="url(#paint33_linear)"/>
<path d="M199.812 111.328L199.927 114.315L203.509 114.278L203.357 111.255L199.812 111.328Z" fill="url(#paint34_linear)"/>
<path d="M214.904 105.333H219.496C220.018 105.463 220.466 108.143 220.466 111.323C220.466 114.503 220.049 116.864 219.533 116.854H214.925C214.403 116.728 213.955 114.044 213.955 110.864C213.955 107.684 214.377 105.296 214.904 105.333Z" fill="#12406D"/>
<path d="M219.064 106.089H223.657C224.178 106.219 224.627 108.899 224.627 112.079C224.627 115.258 224.21 117.62 223.688 117.604H219.085C218.564 117.474 218.11 114.795 218.11 111.615C218.11 108.435 218.538 106.031 219.064 106.089Z" fill="#12406D"/>
<path d="M221.854 111.328L221.969 114.315L225.551 114.278L225.405 111.255L221.854 111.328Z" fill="url(#paint35_linear)"/>
<path d="M195.346 104.129L195.382 105.338C196.117 105.421 196.221 106.808 196.394 107.991C196.566 109.175 196.555 111.265 196.665 111.526C196.775 111.703 196.951 111.831 197.155 111.88C197.155 111.88 196.936 106.229 198.239 106.12C198.484 106.12 199.219 106.12 199.401 106.443C200.189 107.872 200.444 111.844 200.444 111.844H225.425L225.466 107.006L226.055 106.527V104.384L195.346 104.129Z" fill="url(#paint36_linear)"/>
<path d="M198.515 71.9749L226.607 72.0322L226.779 104.775L198.749 104.78L198.515 71.9749Z" fill="url(#paint37_linear)"/>
<path fill-rule="evenodd" clip-rule="evenodd" d="M198.962 73.0644L199.186 104.754L226.33 104.744L226.163 73.3615V73.1165L198.962 73.0644ZM199.672 104.264L199.458 73.5543L225.679 73.6117L225.841 104.264H199.672Z" fill="url(#paint38_linear)"/>
<rect x="212.323" y="73.2856" width="0.521299" height="31.1685" transform="rotate(-0.36 212.323 73.2856)" fill="url(#paint39_linear)"/>
<path d="M198.516 71.9749L194.398 76.8386L194.304 104.243L198.75 104.78L198.516 71.9749Z" fill="url(#paint40_linear)"/>
<rect x="199.407" y="107.376" width="26.2161" height="5.0566" fill="url(#paint41_linear)"/>
<rect x="199.407" y="111.328" width="26.2161" height="1.11037" fill="url(#paint42_linear)"/>
<path d="M206.502 107.376V108.669C206.502 108.822 206.626 108.945 206.778 108.945H218.434C218.587 108.945 218.711 108.822 218.711 108.669V107.376H206.502Z" fill="url(#paint43_linear)"/>
<rect x="199.85" y="108.852" width="4.8533" height="1.40229" rx="0.360751" fill="url(#paint44_linear)"/>
<rect x="220.441" y="108.852" width="4.8533" height="1.40229" rx="0.360751" fill="url(#paint45_linear)"/>
<path d="M193.463 92.587C193.464 92.6582 193.434 92.7261 193.381 92.7739C193.328 92.8216 193.258 92.8447 193.187 92.8373L192.145 92.7487C191.99 92.7306 191.872 92.6018 191.868 92.4463V89.6521C191.866 89.5801 191.896 89.5107 191.949 89.4618C192.001 89.4129 192.073 89.3892 192.145 89.3967L193.187 89.4853C193.342 89.5034 193.459 89.6322 193.463 89.7877V92.587Z" fill="#12406D"/>
<path d="M193.328 92.4568C193.33 92.5285 193.301 92.5975 193.248 92.6456C193.195 92.6938 193.123 92.7162 193.052 92.707L192.28 92.634C192.126 92.616 192.008 92.4871 192.004 92.3317V89.7773C192.002 89.7056 192.031 89.6366 192.084 89.5885C192.138 89.5404 192.209 89.5179 192.28 89.5271L193.052 89.6001C193.208 89.6184 193.327 89.7502 193.328 89.9077V92.4568Z" fill="url(#paint46_linear)"/>
<path d="M193.512 94.5993C193.486 95.1424 193.03 95.5645 192.486 95.5476C191.943 95.5307 191.513 95.0811 191.522 94.5375C191.53 93.9939 191.972 93.5573 192.516 93.5567C193.073 93.5818 193.512 94.0413 193.512 94.5993Z" fill="#12406D"/>
<path d="M193.363 94.5994C193.318 95.05 192.924 95.3836 192.472 95.3534C192.02 95.3232 191.674 94.94 191.689 94.4874C191.704 94.0349 192.076 93.6761 192.529 93.6767C192.762 93.6875 192.981 93.791 193.138 93.9643C193.295 94.1375 193.376 94.3662 193.363 94.5994Z" fill="url(#paint47_linear)"/>
<rect x="218.965" y="101.074" width="6.20346" height="2.39798" fill="#F8931F"/>
<rect x="200.392" y="101.074" width="6.20346" height="2.39798" fill="#F8931F"/>
<path d="M76.5213 119.783C77.1638 119.693 77.7914 119.518 78.3875 119.262C78.6459 119.176 78.9202 119.149 79.1903 119.184C80.327 119.171 81.4613 119.076 82.584 118.897C83.399 118.7 84.2385 118.623 85.0758 118.667C85.8338 118.731 86.5958 118.731 87.3539 118.667C87.9794 118.641 90.3357 118.459 91.0864 118.407C91.837 118.355 97.931 118.589 98.1396 118.615C98.3827 118.707 98.6341 118.775 98.8902 118.819C99.3594 118.871 102.018 118.767 102.414 118.767C102.81 118.767 105.422 117.552 105.813 117.422C107.204 116.821 108.561 116.146 109.879 115.399C110.24 114.296 110.485 113.159 110.609 112.005C110.626 110.948 110.574 109.891 110.453 108.841C110.374 108.659 101.976 107.079 101.976 107.079H72.5802C72.5802 107.079 71.3865 114.377 71.5376 114.857C71.6888 115.336 76.5213 119.783 76.5213 119.783Z" fill="#12406D"/>
<path opacity="0.8" d="M68.8687 122.343C69.1137 121.822 76.6882 120.529 77.4075 120.451C78.1269 120.372 84.4086 120.18 85.4668 120.18C86.5251 120.18 94.8502 120.06 96.2421 120.101C97.634 120.143 106.783 120.294 107.414 120.336C108.245 120.455 109.061 120.67 109.843 120.977C109.697 121.003 105.552 122.411 104.755 122.614C103.957 122.817 102.498 122.89 100.022 122.932C97.5453 122.974 82.7561 123.047 76.9749 122.969C71.1937 122.89 68.6758 122.776 68.8687 122.343Z" fill="#12406D"/>
<path d="M104.77 111.067H101.189C100.771 111.192 100.433 113.887 100.433 117.078C100.433 120.268 100.756 122.635 101.162 122.624H104.744C105.161 122.494 105.5 119.804 105.5 116.609C105.5 113.413 105.182 110.999 104.77 111.067Z" fill="#12406D"/>
<path d="M76.1253 111.067H72.2052C71.7464 111.192 71.3711 113.887 71.3711 117.078C71.3711 120.268 71.7308 122.635 72.1739 122.624H76.1045C76.5632 122.494 76.9334 119.804 76.9334 116.609C76.9334 113.413 76.5945 110.999 76.1253 111.067Z" fill="#12406D"/>
<path d="M105.358 116.655C105.358 119.085 105.139 121.133 104.873 121.227C104.608 121.321 104.389 119.434 104.389 117.005C104.389 114.575 104.608 112.527 104.873 112.433C105.139 112.339 105.358 114.226 105.358 116.655Z" fill="url(#paint48_linear)"/>
<path d="M109.858 110.421H106.59C106.209 110.535 105.896 112.996 105.896 115.91C105.896 118.824 106.194 120.987 106.564 120.977C106.564 120.977 109.838 120.977 109.843 120.977C110.228 120.862 110.536 118.402 110.536 115.488C110.536 112.574 110.234 110.374 109.858 110.421Z" fill="#12406D"/>
<path d="M83.397 110.421H79.9147C79.5081 110.535 79.1797 112.996 79.1797 115.91C79.1797 118.824 79.4925 120.987 79.8887 120.977C79.8887 120.977 83.3709 120.977 83.3814 120.977C83.788 120.862 84.1164 118.402 84.1164 115.488C84.1164 112.574 83.7932 110.374 83.397 110.421Z" fill="#12406D"/>
<path d="M110.394 115.54C110.394 117.761 110.227 119.627 110.019 119.71C109.81 119.794 109.644 118.074 109.644 115.853C109.644 113.632 109.81 111.766 110.019 111.682C110.227 111.599 110.394 113.319 110.394 115.54Z" fill="url(#paint49_linear)"/>
<path d="M76.5948 97.0755C77.0223 96.476 78.0701 95.8609 79.0762 95.3188C79.9235 94.9057 80.8455 94.6681 81.787 94.6202C82.4855 94.542 85.6915 94.1823 89.6064 94.0989C93.0909 94.0399 96.5751 94.2298 100.032 94.6671C101.523 94.9588 102.86 95.7743 103.801 96.9661C105.068 98.4674 106.361 101.074 107.06 102.523C107.758 103.972 107.935 104.744 108.326 105.13C108.81 105.624 109.227 106.179 109.567 106.782C109.952 107.379 110.28 108.011 110.547 108.669C110.702 109.453 110.758 110.254 110.714 111.052C110.714 111.854 110.531 113.809 110.531 113.809L110.49 113.246C110.49 113.246 110.49 113.09 110.531 111.734C110.573 110.379 110.531 108.758 110.292 109.003C110.052 109.248 109.864 110.739 109.77 112.016C109.616 113.405 109.386 114.785 109.082 116.15C109.005 116.44 108.834 116.696 108.597 116.88C107.929 117.103 107.248 117.289 106.559 117.437C106.226 117.516 105.888 117.57 105.548 117.599C105.548 117.599 105.668 114.888 105.704 113.637C105.773 112.443 105.745 111.245 105.621 110.056C105.496 109.644 105.318 109.373 105.099 109.628C104.881 109.884 104.536 110.791 104.187 112.756C103.838 114.722 103.431 115.785 103.249 116.061C103.066 116.338 102.206 117.333 101.398 117.396C100.59 117.458 93.8655 117.302 88.6055 117.396C83.3456 117.49 78.3672 117.396 76.2143 117.464C74.0613 117.531 73.4462 117.464 72.7163 116.901C72.1078 116.467 71.6764 115.828 71.5017 115.102C71.3082 114.015 71.188 112.916 71.142 111.813C71.0959 111.268 71.1633 110.719 71.3401 110.202C71.4703 109.846 71.62 109.498 71.7884 109.159C71.7884 109.159 71.7884 107.147 71.8823 106.485C71.9761 105.823 72.195 104.514 72.6694 103.878C73.0404 103.422 73.4428 102.992 73.8736 102.591C74.1551 102.268 74.9631 100.193 75.5522 98.9418C75.8318 98.2841 76.1813 97.6584 76.5948 97.0755Z" fill="url(#paint50_linear)"/>
<path d="M103.326 115.92C103.326 115.92 95.6 116.092 85.9768 116.066C76.3536 116.04 71.834 116.04 71.834 116.04C72.096 116.71 72.6517 117.221 73.3405 117.427C74.5252 117.767 75.7656 117.868 76.9896 117.724C78.3711 117.625 80.8368 117.599 86.5138 117.547C92.1907 117.495 96.6322 117.599 97.8885 117.646C99.1449 117.693 101.147 118.016 102.059 117.401C102.617 117.042 103.057 116.527 103.326 115.92V115.92Z" fill="url(#paint51_linear)"/>
<path d="M99.4004 112.047C100.178 111.946 100.965 111.929 101.746 111.995C102.163 112.047 102.314 113.131 101.694 113.178C100.939 113.229 100.181 113.229 99.4264 113.178C99.1789 113.105 99.0071 112.88 99.0011 112.622C98.9952 112.364 99.1565 112.132 99.4004 112.047Z" fill="url(#paint52_linear)"/>
<path d="M72.2775 112.021C72.954 111.965 73.6348 111.989 74.3054 112.094C74.5504 112.193 74.7694 113.137 74.1803 113.23C73.5271 113.333 72.8648 113.366 72.2046 113.33C71.7354 113.277 71.5894 112.11 72.2775 112.021Z" fill="url(#paint53_linear)"/>
<path d="M95.7716 108.221C95.7716 108.221 94.3172 110.687 86.3882 110.488C78.4592 110.29 77.9014 108.169 77.9014 108.169L77.8232 106.37C77.8232 106.37 80.3203 106.839 86.4403 106.839C92.5604 106.839 96.0896 105.875 96.0896 105.875C96.0896 105.875 96.0687 107.799 95.7716 108.221Z" fill="url(#paint54_linear)"/>
<path d="M73.9873 102.518C73.9873 102.518 74.3314 101.475 74.9726 100C75.6138 98.5247 76.1611 97.5864 76.3801 97.4613C76.599 97.3362 80.5505 96.5698 87.807 96.4969C95.0634 96.4239 99.4528 97.1641 99.6769 97.4091C100.23 98.5245 100.621 99.7128 100.839 100.938C101.032 102.2 101.084 102.471 100.938 102.502C100.793 102.534 93.5569 103.269 86.6705 103.269C79.7842 103.269 73.9873 102.69 73.9873 102.518Z" fill="#12406D"/>
<path d="M74.2217 102.398C74.2217 102.398 74.5605 101.429 75.1913 100.042C75.8221 98.6552 76.3538 97.7742 76.5727 97.6595C76.7917 97.5448 80.6702 96.8254 87.7963 96.7577C94.9225 96.6899 99.2649 97.378 99.4578 97.6126C99.9978 98.6526 100.382 99.7661 100.599 100.918C100.792 102.101 100.839 102.356 100.693 102.398C100.547 102.44 93.4472 103.118 86.6807 103.118C79.9143 103.118 74.2217 102.56 74.2217 102.398Z" fill="url(#paint55_linear)"/>
<path d="M85.04 96.5698C85.04 96.5698 86.3224 96.4968 87.8029 96.4968C89.2834 96.4968 90.6909 96.4968 90.6909 96.4968C89.7623 96.8131 88.7831 96.9545 87.8029 96.9138C86.8686 96.9713 85.9317 96.8547 85.04 96.5698Z" fill="url(#paint56_linear)"/>
<path d="M108.015 104.718C108.015 104.718 107.42 104.123 105.278 103.409C103.135 102.695 102.906 102.299 102.833 102.148C102.76 101.996 101.029 97.8574 101.029 97.31C101.092 96.8944 101.344 96.5314 101.711 96.3273C102.079 96.1232 102.52 96.101 102.906 96.2674C103.896 96.7574 104.856 98.191 106.091 100.485C106.844 101.842 107.487 103.258 108.015 104.718Z" fill="#12406D"/>
<path d="M103.867 98.7436C104.612 100.26 105.247 101.828 105.765 103.435C106.531 103.732 107 103.957 107.282 104.092C107.36 104.129 107.454 103.774 107.381 103.602C107.079 102.945 106.615 101.83 105.916 100.516C104.785 98.3734 103.904 97.0389 103.007 96.5802C102.89 96.5199 102.763 96.481 102.632 96.4655C102.778 96.7001 103.122 97.3048 103.867 98.7436Z" fill="url(#paint57_linear)"/>
<path d="M104.187 100.594C103.617 99.1814 102.932 97.8179 102.138 96.5177C101.692 96.6868 101.376 97.0875 101.314 97.5603C101.314 98.0816 102.91 101.934 102.972 102.07C103.035 102.205 103.243 102.591 105.104 103.211C104.943 102.69 104.646 101.809 104.187 100.594Z" fill="url(#paint58_linear)"/>
<path d="M105.443 105.552C105.443 105.552 105.495 105.948 105.547 106.219C105.599 106.49 105.693 106.985 105.865 106.886C106.037 106.787 106.324 105.812 106.073 105.687C105.823 105.562 105.417 105.38 105.443 105.552Z" fill="url(#paint59_linear)"/>
<path d="M107.542 106.157C107.544 106.566 107.62 106.972 107.766 107.356C107.865 107.455 108.011 107.152 108.069 106.834C108.126 106.516 108.147 106.469 108.069 106.381C107.99 106.292 107.563 106.037 107.542 106.157Z" fill="url(#paint60_linear)"/>
<path d="M102.814 114.497C103.016 112.959 103.303 111.432 103.675 109.925C104.045 108.455 104.295 107.877 104.592 107.804C104.889 107.731 105.556 108.846 105.572 108.987C105.588 109.128 105.16 108.987 104.993 109.258C104.827 109.529 104.206 111.734 103.779 113.189C103.351 114.643 103.08 115.608 102.976 115.43C102.83 115.142 102.774 114.817 102.814 114.497Z" fill="url(#paint61_linear)"/>
<path d="M110.224 108.617C110.05 109.104 109.9 109.6 109.776 110.103C109.63 110.681 109.463 111.886 109.437 111.573C109.411 111.26 109.614 108.69 109.703 108.216C109.791 107.741 109.807 107.637 110 107.918C110.193 108.2 110.297 108.461 110.224 108.617Z" fill="url(#paint62_linear)"/>
<path d="M106.093 111.719C106.093 111.604 106.448 111.959 106.792 111.974C107.136 111.99 108.47 112.376 108.721 112.417C108.971 112.459 109.242 112.256 109.299 112.297C109.315 112.532 109.28 112.767 109.195 112.986C109.138 113.069 108.914 112.986 107.918 112.907C106.922 112.829 106.182 112.907 106.151 112.746C106.093 112.407 106.074 112.062 106.093 111.719Z" fill="url(#paint63_linear)"/>
<path d="M105.551 116.197L107.579 116.04C108.543 115.967 109.096 115.879 109.096 115.879C109.034 116.236 108.895 116.576 108.689 116.874C107.819 117.202 106.92 117.45 106.005 117.615C105.515 117.703 105.483 117.615 105.483 117.615L105.551 116.197Z" fill="url(#paint64_linear)"/>
<path d="M80.7635 111.896C81.0607 111.896 84.6003 111.896 86.7429 111.896C88.8854 111.896 92.3103 111.828 92.7013 111.896C93.3088 112.169 93.5867 112.878 93.3269 113.491C93.0401 114.31 92.5814 115.055 91.2417 115.055C89.9019 115.055 89.5631 115.175 86.55 115.175C83.5369 115.175 81.8583 115.175 81.2744 115.019C80.6906 114.862 79.6428 114.205 79.6063 113.204C79.5711 112.874 79.6764 112.544 79.8966 112.295C80.1167 112.046 80.4313 111.901 80.7635 111.896Z" fill="url(#paint65_linear)"/>
<path d="M72.6733 104.05C72.9018 103.628 73.4006 103.43 73.8567 103.581C74.378 103.8 77.6361 106 77.829 106.37C78.0218 106.74 78.1782 108.096 77.9072 108.169C76.3877 108.227 74.8662 108.129 73.3666 107.877C72.4492 107.6 72.1051 107.428 72.079 106.985C72.053 106.542 72.0582 104.911 72.6733 104.05Z" fill="url(#paint66_linear)"/>
<path d="M95.9227 108.247C95.6777 108.19 95.9227 106.162 96.0948 105.875C96.2668 105.588 99.895 103.68 100.557 103.409C101.136 103.208 101.768 103.225 102.335 103.456C102.642 103.596 102.888 103.843 103.028 104.15C103.028 104.296 103.101 106.662 102.434 107.23C101.767 107.799 100.437 108.049 99.1027 108.07C97.7681 108.091 96.1417 108.294 95.9227 108.247Z" fill="url(#paint67_linear)"/>
<path d="M107.872 104.54C107.663 104.191 107.527 103.802 107.471 103.399C107.55 103.065 107.852 102.832 108.195 102.841C108.717 102.799 110.708 103.091 110.802 103.451C110.939 103.856 110.728 104.297 110.327 104.447C109.957 104.54 108.049 104.759 107.872 104.54Z" fill="#12406D"/>
<path d="M108.112 104.447C107.93 104.138 107.813 103.796 107.768 103.441C107.837 103.148 108.103 102.945 108.404 102.956C108.847 102.924 110.603 103.19 110.702 103.503C110.821 103.858 110.637 104.244 110.285 104.374C109.915 104.457 108.258 104.639 108.112 104.447Z" fill="url(#paint68_linear)"/>
<path d="M108.294 105.5C108.278 105.562 108.235 105.615 108.177 105.644C108.119 105.673 108.051 105.676 107.991 105.651C107.852 105.618 107.756 105.491 107.762 105.348C107.762 105.223 107.913 105.161 108.059 105.203C108.197 105.234 108.295 105.358 108.294 105.5Z" fill="url(#paint69_linear)"/>
<path opacity="0.8" d="M234.292 248.638C229.423 252.355 221.124 253.142 210.614 254.758C200.105 256.374 174.233 257.99 129.568 257.99C84.903 257.99 71.563 256.577 66.105 251.734C60.647 246.892 60.0423 241.428 61.6583 237.383C63.2743 233.338 68.7323 224.048 73.5804 218.387C78.4285 212.726 80.6545 211.089 83.0837 209.494C85.513 207.898 176.86 209.087 194.042 209.087C211.224 209.087 238.525 229.939 238.514 235.178C238.504 240.417 236.747 246.766 234.292 248.638Z" fill="#12406D"/>
<path d="M221.297 152.119C221.297 152.119 222.381 152.401 222.902 152.119C223.424 151.838 223.841 151.363 224.545 150.988C225.248 150.613 230.712 151.176 233.255 152.213C234.988 152.891 235.981 154.718 235.607 156.54C235.372 157.202 233.865 157.624 231.186 157.624C228.506 157.624 225.452 157.624 224.451 157.39C223.45 157.155 222.663 156.827 222.428 156.493C222.194 156.159 221.297 152.119 221.297 152.119Z" fill="#12406D"/>
<path d="M224.972 151.41C225.957 151.27 229.491 151.786 231.608 152.307C233.724 152.828 234.762 153.871 235.09 154.799C235.418 155.727 235.184 156.587 234.152 156.775C233.12 156.962 231.608 156.921 229.298 156.874C226.989 156.827 225.3 156.775 224.69 156.493C224.08 156.212 223.606 153.954 223.747 153.011C223.887 152.067 224.31 151.504 224.972 151.41Z" fill="url(#paint70_linear)"/>
<path d="M99.5631 152.119C99.5631 152.119 98.4788 152.401 97.9627 152.119C97.4466 151.838 97.0192 151.363 96.3154 150.988C95.6117 150.613 90.1485 151.176 87.6045 152.213C85.8736 152.893 84.8817 154.718 85.2535 156.54C85.488 157.202 86.9946 157.624 89.6741 157.624C92.3536 157.624 95.4084 157.624 96.4093 157.39C97.4102 157.155 98.1973 156.827 98.4319 156.493C98.6665 156.159 99.5631 152.119 99.5631 152.119Z" fill="#12406D"/>
<path d="M95.8812 151.41C94.896 151.27 91.3668 151.786 89.2451 152.307C87.1234 152.828 86.1173 153.871 85.7628 154.799C85.4083 155.727 85.669 156.587 86.7064 156.775C87.7438 156.962 89.2451 156.921 91.5545 156.874C93.8638 156.827 95.5528 156.775 96.168 156.493C96.7831 156.212 97.2471 153.954 97.1063 153.011C96.9656 152.067 96.5485 151.504 95.8812 151.41Z" fill="url(#paint71_linear)"/>
<path d="M160.427 232.087H122.753L109.397 238.822C109.397 238.822 132.23 239.734 160.427 239.734C188.625 239.734 211.457 238.822 211.457 238.822L198.102 232.087H160.427Z" fill="#12406D"/>
<path d="M238.514 235.168C238.514 238.963 237.831 244.551 236.804 246.469C235.777 248.388 235.663 248.638 234.292 248.638H218.767C217.511 248.638 216.161 246.813 215.796 245.328C215.431 243.842 214.54 238.592 214.753 236.309C214.967 234.026 220.232 233.458 227.426 233.458C234.62 233.458 238.514 233.343 238.514 235.168Z" fill="#12406D"/>
<path d="M82.3281 235.168C82.3281 238.963 83.011 244.551 84.038 246.469C85.0649 248.388 85.1796 248.638 86.5506 248.638H102.075C103.331 248.638 104.681 246.813 105.046 245.328C105.411 243.842 106.303 238.592 106.089 236.309C105.875 234.026 100.61 233.458 93.4162 233.458C86.2222 233.458 82.3281 233.343 82.3281 235.168Z" fill="#12406D"/>
<path d="M160.429 235.866C147.172 235.866 132.8 235.626 127.905 235.626C123.01 235.626 106.532 241.178 101.146 240.699C95.7615 240.219 84.9445 238.775 82.2442 236.372C79.5438 233.969 78.5586 205.615 78.5586 197.18C78.5586 188.746 83.2503 173.133 86.1696 170.49C89.0888 167.847 95.0317 160.632 96.9709 157.265C98.9101 153.897 102.127 146.208 104.092 142.6C106.057 138.993 110.473 132.018 114.403 131.059C118.334 130.1 138.826 126.972 160.429 126.972C182.031 126.972 202.529 130.1 206.454 131.059C210.38 132.018 214.795 138.993 216.765 142.6C218.736 146.208 221.921 153.902 223.886 157.265C225.852 160.627 231.742 167.847 234.688 170.49C237.633 173.133 242.299 188.761 242.299 197.18C242.299 205.599 241.319 233.969 238.613 236.372C235.908 238.775 225.117 240.219 219.711 240.699C214.305 241.178 197.863 235.626 192.953 235.626C188.042 235.626 173.685 235.866 160.429 235.866Z" fill="url(#paint72_linear)"/>
<path d="M160.429 182.323C125.56 182.323 114.44 180.343 112.611 179.889C110.781 179.435 109.107 178.977 109.107 178.21C109.107 177.444 109.264 172.732 111.547 160.09C113.83 147.449 115.822 140.802 115.9 140.505C115.978 140.208 116.27 139.228 118.246 138.769C120.222 138.31 137.586 136.027 160.429 136.027C183.273 136.027 200.632 138.315 202.613 138.769C204.594 139.222 204.875 140.202 204.959 140.505C205.042 140.807 207.044 147.449 209.312 160.09C211.579 172.732 211.751 177.449 211.751 178.21C211.751 178.971 210.073 179.43 208.248 179.889C206.424 180.348 195.304 182.323 160.429 182.323Z" fill="#12406D"/>
<path d="M160.429 179.581C126.711 179.581 115.962 177.752 114.195 177.329C112.428 176.907 110.807 176.485 110.807 175.766C110.807 175.046 110.953 170.699 113.163 159.016C115.373 147.334 117.297 141.198 117.375 140.917C117.453 140.635 117.729 139.733 119.643 139.311C121.556 138.889 138.342 136.778 160.429 136.778C182.517 136.778 199.302 138.889 201.216 139.311C203.129 139.733 203.405 140.635 203.483 140.917C203.561 141.198 205.485 147.334 207.695 159.016C209.906 170.699 210.052 175.062 210.052 175.766C210.052 176.469 208.43 176.892 206.663 177.329C204.896 177.767 194.147 179.581 160.429 179.581Z" fill="url(#paint73_linear)"/>
<path d="M208.64 131.919C208.64 131.919 210.688 141.516 211.601 143.852C212.513 146.187 218.899 159.856 220.077 162.775C221.255 165.694 222.24 168.384 222.522 168.03C222.803 167.675 223.658 162.113 223.205 158.902C222.751 155.69 221.896 153.063 218.143 145.645C214.39 138.227 210.522 133.196 208.64 131.919Z" fill="#12406D"/>
<path d="M209.339 132.388C209.339 132.388 211.242 139.65 212.086 141.818C212.931 143.987 218.863 156.67 219.953 159.381C221.042 162.092 221.96 164.594 222.22 164.255C222.481 163.916 223.263 160.408 222.856 157.426C222.45 154.444 221.642 152.005 218.164 145.124C214.687 138.242 211.09 133.582 209.339 132.388Z" fill="url(#paint74_linear)"/>
<path d="M112.219 131.919C112.219 131.919 110.171 141.516 109.258 143.852C108.346 146.187 101.96 159.856 100.782 162.775C99.6038 165.694 98.6238 168.379 98.337 168.03C98.0503 167.68 97.2006 162.113 97.6541 158.902C98.1077 155.69 98.9626 153.063 102.716 145.645C106.469 138.227 110.343 133.196 112.219 131.919Z" fill="#12406D"/>
<path d="M111.519 132.388C111.519 132.388 109.616 139.65 108.772 141.818C107.927 143.987 101.995 156.67 100.905 159.381C99.8159 162.092 98.8984 164.594 98.6377 164.255C98.3771 163.916 97.5951 160.408 98.0017 157.426C98.4084 154.444 99.2164 152.005 102.693 145.124C106.17 138.242 109.778 133.582 111.519 132.388Z" fill="url(#paint75_linear)"/>
<path d="M160.43 191.639C142.022 191.639 121.535 191.488 120.003 191.488C120.003 191.488 118.918 194.345 119.554 196.873C120.19 199.401 123.866 198.437 123.866 198.437C123.866 198.437 138.681 197.332 160.43 197.332C182.178 197.332 196.993 198.437 196.993 198.437C196.993 198.437 200.674 199.406 201.31 196.873C201.946 194.339 200.856 191.488 200.856 191.488C199.324 191.488 178.837 191.639 160.43 191.639Z" fill="url(#paint76_linear)"/>
<path fill-rule="evenodd" clip-rule="evenodd" d="M200.855 191.488C200.855 191.488 205.766 191.368 212.517 190.508C219.268 189.648 226.879 188.423 228.229 188.172C229.579 187.922 230.929 187.927 230.559 192.963C230.189 197.999 229.334 204.619 225.528 204.254C221.723 203.889 210.963 200.663 205.198 199.667C199.432 198.671 197.003 198.426 197.003 198.426L200.855 191.488Z" fill="#F8931F"/>
<path fill-rule="evenodd" clip-rule="evenodd" d="M120.002 191.488C120.002 191.488 115.091 191.368 108.341 190.508C101.59 189.648 93.9788 188.423 92.6286 188.172C91.2784 187.922 89.9283 187.927 90.2984 192.963C90.6685 197.999 91.5234 204.619 95.3289 204.254C99.1344 203.889 109.894 200.663 115.66 199.667C121.425 198.671 123.854 198.426 123.854 198.426L120.002 191.488Z" fill="#F8931F"/>
<path d="M160.429 213.888C118.584 213.888 104.468 211.605 97.3206 210.578C90.1736 209.551 88.0206 205.099 87.2283 205.099C86.4359 205.099 86.8894 208.524 87.6818 214.457C87.6818 214.457 88.7244 221.197 89.1571 223.251C89.5898 225.305 90.8565 225.988 91.7636 225.419C92.6706 224.851 92.6706 218.121 98.0192 218.57C103.368 219.018 132.55 220.165 160.445 220.165C188.339 220.165 217.543 219.023 222.87 218.57C228.198 218.116 228.203 224.825 229.126 225.419C230.049 226.014 231.279 225.305 231.732 223.251C232.186 221.197 233.208 214.457 233.208 214.457C234 208.524 234.454 205.099 233.661 205.099C232.869 205.099 230.711 209.551 223.569 210.578C216.427 211.605 202.274 213.888 160.429 213.888Z" fill="url(#paint77_linear)"/>
<path d="M160.449 185.524C139.967 185.524 119.194 184.57 106.192 183.475C93.3111 182.396 86.529 179.628 85.4395 178.064C84.35 176.5 84.7618 173.493 85.575 171.209C85.575 171.209 82.588 176.62 82.1866 179.388C81.7852 182.157 81.3733 186.004 87.3422 187.568C93.3111 189.132 103.617 190.331 115.69 191.055C126.93 191.728 147.698 191.535 160.449 191.535C173.2 191.535 193.969 191.728 205.208 191.055C217.276 190.331 227.587 189.132 233.556 187.568C239.525 186.004 239.202 182.157 238.795 179.388C238.389 176.62 235.318 171.209 235.318 171.209C236.131 173.493 236.538 176.5 235.454 178.064C234.369 179.628 227.587 182.396 214.701 183.475C201.705 184.57 180.926 185.524 160.449 185.524Z" fill="url(#paint78_linear)"/>
<rect x="134.853" y="196.974" width="52.3136" height="13.7375" rx="3.44869" fill="white" stroke="#DDE5EB" stroke-width="2.26888"/>
</g>
<defs>
<linearGradient id="paint0_linear" x1="-85.5261" y1="79.883" x2="-85.5261" y2="144.493" gradientUnits="userSpaceOnUse">
<stop stop-color="#92C1DB"/>
<stop offset="1" stop-color="#FFFFFD"/>
</linearGradient>
<linearGradient id="paint1_linear" x1="-4903.3" y1="109.587" x2="-4903.3" y2="145.692" gradientUnits="userSpaceOnUse">
<stop stop-color="#92C1DB"/>
<stop offset="1" stop-color="#FFFFFD"/>
</linearGradient>
<linearGradient id="paint2_linear" x1="175.803" y1="95.8175" x2="175.803" y2="160.433" gradientUnits="userSpaceOnUse">
<stop stop-color="#92C1DB"/>
<stop offset="1" stop-color="#FFFFFD"/>
</linearGradient>
<linearGradient id="paint3_linear" x1="177.661" y1="95.4056" x2="177.661" y2="131.511" gradientUnits="userSpaceOnUse">
<stop stop-color="#92C1DB"/>
<stop offset="1" stop-color="#FFFFFD"/>
</linearGradient>
<linearGradient id="paint4_linear" x1="-321.774" y1="90.0482" x2="-321.774" y2="233.239" gradientUnits="userSpaceOnUse">
<stop stop-color="#C4CFDB"/>
<stop offset="0.25" stop-color="#8BA1B7"/>
<stop offset="1" stop-color="#63819F"/>
</linearGradient>
<linearGradient id="paint5_linear" x1="135.407" y1="88.5783" x2="135.407" y2="96.8513" gradientUnits="userSpaceOnUse">
<stop stop-color="#BAD9E9"/>
<stop offset="1" stop-color="#205C8C"/>
</linearGradient>
<linearGradient id="paint6_linear" x1="137.109" y1="88.8234" x2="137.109" y2="91.2423" gradientUnits="userSpaceOnUse">
<stop stop-color="#3372A3"/>
<stop offset="1" stop-color="#498AB8"/>
</linearGradient>
<linearGradient id="paint7_linear" x1="224.386" y1="88.9587" x2="224.386" y2="91.0648" gradientUnits="userSpaceOnUse">
<stop stop-color="#3372A3"/>
<stop offset="1" stop-color="#498AB8"/>
</linearGradient>
<linearGradient id="paint8_linear" x1="136.517" y1="92.7696" x2="136.517" y2="93.4056" gradientUnits="userSpaceOnUse">
<stop stop-color="#5381A6"/>
<stop offset="1" stop-color="#3B709A"/>
</linearGradient>
<linearGradient id="paint9_linear" x1="143.972" y1="92.7695" x2="143.972" y2="93.4055" gradientUnits="userSpaceOnUse">
<stop stop-color="#5381A6"/>
<stop offset="1" stop-color="#3B709A"/>
</linearGradient>
<linearGradient id="paint10_linear" x1="224.227" y1="94.1717" x2="224.227" y2="92.4671" gradientUnits="userSpaceOnUse">
<stop stop-color="#BAD9E9"/>
<stop offset="1" stop-color="#205C8C"/>
</linearGradient>
<linearGradient id="paint11_linear" x1="215.59" y1="93.4523" x2="215.59" y2="96.1214" gradientUnits="userSpaceOnUse">
<stop stop-color="#BAD9E9"/>
<stop offset="1" stop-color="#205C8C"/>
</linearGradient>
<linearGradient id="paint12_linear" x1="174.196" y1="98.5387" x2="174.918" y2="98.5467" gradientUnits="userSpaceOnUse">
<stop stop-color="#D2DBE3"/>
<stop offset="1" stop-color="#A3B5C6"/>
</linearGradient>
<linearGradient id="paint13_linear" x1="-4968.85" y1="94.8115" x2="-4969.49" y2="94.8241" gradientUnits="userSpaceOnUse">
<stop stop-color="#D2DBE3"/>
<stop offset="1" stop-color="#A3B5C6"/>
</linearGradient>
<linearGradient id="paint14_linear" x1="173.993" y1="90.0901" x2="173.993" y2="96.3822" gradientUnits="userSpaceOnUse">
<stop stop-color="#92A7BC"/>
<stop offset="1" stop-color="#1B4873"/>
</linearGradient>
<linearGradient id="paint15_linear" x1="-4982.59" y1="96.3403" x2="-4982.59" y2="97.0857" gradientUnits="userSpaceOnUse">
<stop stop-color="#92A7BC"/>
<stop offset="1" stop-color="#1B4873"/>
</linearGradient>
<linearGradient id="paint16_linear" x1="183.411" y1="94.7713" x2="183.411" y2="93.6975" gradientUnits="userSpaceOnUse">
<stop stop-color="#7892AC"/>
<stop offset="1" stop-color="#14426E"/>
</linearGradient>
<linearGradient id="paint17_linear" x1="172.69" y1="90.88" x2="172.62" y2="94.7887" gradientUnits="userSpaceOnUse">
<stop stop-color="#3372A3"/>
<stop offset="1" stop-color="#498AB8"/>
</linearGradient>
<linearGradient id="paint18_linear" x1="181.13" y1="90.3873" x2="179.353" y2="90.3873" gradientUnits="userSpaceOnUse">
<stop stop-color="#4678A0"/>
<stop offset="1" stop-color="#366C98"/>
</linearGradient>
<linearGradient id="paint19_linear" x1="174.995" y1="89.1619" x2="172.535" y2="90.4864" gradientUnits="userSpaceOnUse">
<stop stop-color="#3372A3"/>
<stop offset="1" stop-color="#498AB8"/>
</linearGradient>
<linearGradient id="paint20_linear" x1="175.375" y1="89.2185" x2="172.921" y2="90.2832" gradientUnits="userSpaceOnUse">
<stop stop-color="#3372A3"/>
<stop offset="1" stop-color="#498AB8"/>
</linearGradient>
<linearGradient id="paint21_linear" x1="-4970.5" y1="93.9657" x2="-4970.47" y2="93.533" gradientUnits="userSpaceOnUse">
<stop stop-color="#7892AC"/>
<stop offset="1" stop-color="#14426E"/>
</linearGradient>
<linearGradient id="paint22_linear" x1="-4969.85" y1="93.9998" x2="-4969.83" y2="93.5671" gradientUnits="userSpaceOnUse">
<stop stop-color="#7892AC"/>
<stop offset="1" stop-color="#14426E"/>
</linearGradient>
<linearGradient id="paint23_linear" x1="-4972.06" y1="91.6851" x2="-4972.06" y2="96.4498" gradientUnits="userSpaceOnUse">
<stop stop-color="#92A7BC"/>
<stop offset="1" stop-color="#1B4873"/>
</linearGradient>
<linearGradient id="paint24_linear" x1="-4970.46" y1="91.6852" x2="-4970.46" y2="96.4499" gradientUnits="userSpaceOnUse">
<stop stop-color="#92A7BC"/>
<stop offset="1" stop-color="#1B4873"/>
</linearGradient>
<linearGradient id="paint25_linear" x1="-4969.74" y1="95.8676" x2="-4969.73" y2="95.4711" gradientUnits="userSpaceOnUse">
<stop stop-color="#92A7BC"/>
<stop offset="1" stop-color="#1B4873"/>
</linearGradient>
<linearGradient id="paint26_linear" x1="173.521" y1="96.4395" x2="173.521" y2="97.0286" gradientUnits="userSpaceOnUse">
<stop stop-color="#92A7BC"/>
<stop offset="1" stop-color="#3D6287"/>
</linearGradient>
<linearGradient id="paint27_linear" x1="185.109" y1="97.4402" x2="185.109" y2="95.2872" gradientUnits="userSpaceOnUse">
<stop stop-color="#92A7BC"/>
<stop offset="1" stop-color="#1B4873"/>
</linearGradient>
<linearGradient id="paint28_linear" x1="187.013" y1="114.203" x2="186.072" y2="114.203" gradientUnits="userSpaceOnUse">
<stop stop-color="#3372A3"/>
<stop offset="1" stop-color="#498AB8"/>
</linearGradient>
<linearGradient id="paint29_linear" x1="203.513" y1="72.788" x2="203.484" y2="72.6487" gradientUnits="userSpaceOnUse">
<stop stop-color="#FEA62C"/>
<stop offset="1" stop-color="#3D89BA"/>
</linearGradient>
<linearGradient id="paint30_linear" x1="197.103" y1="77.8427" x2="193.063" y2="77.7748" gradientUnits="userSpaceOnUse">
<stop stop-color="#337CAF"/>
<stop offset="1" stop-color="#4789B7"/>
</linearGradient>
<linearGradient id="paint31_linear" x1="193.782" y1="90.2163" x2="196.209" y2="90.7417" gradientUnits="userSpaceOnUse">
<stop stop-color="#3372A3"/>
<stop offset="1" stop-color="#498AB8"/>
</linearGradient>
<linearGradient id="paint32_linear" x1="192.754" y1="121.256" x2="195.019" y2="121.264" gradientUnits="userSpaceOnUse">
<stop stop-color="#D2DBE3"/>
<stop offset="1" stop-color="#A3B5C6"/>
</linearGradient>
<linearGradient id="paint33_linear" x1="196.111" y1="121.996" x2="198.376" y2="122.004" gradientUnits="userSpaceOnUse">
<stop stop-color="#D2DBE3"/>
<stop offset="1" stop-color="#A3B5C6"/>
</linearGradient>
<linearGradient id="paint34_linear" x1="199.812" y1="114.318" x2="203.509" y2="114.318" gradientUnits="userSpaceOnUse">
<stop stop-color="#44688C"/>
<stop offset="1" stop-color="#12406D"/>
</linearGradient>
<linearGradient id="paint35_linear" x1="221.86" y1="114.315" x2="225.551" y2="114.315" gradientUnits="userSpaceOnUse">
<stop stop-color="#44688C"/>
<stop offset="1" stop-color="#12406D"/>
</linearGradient>
<linearGradient id="paint36_linear" x1="196.221" y1="103.983" x2="196.221" y2="111.297" gradientUnits="userSpaceOnUse">
<stop stop-color="#44688C"/>
<stop offset="1" stop-color="#12406D"/>
</linearGradient>
<linearGradient id="paint37_linear" x1="185.423" y1="80.1869" x2="210.698" y2="113.77" gradientUnits="userSpaceOnUse">
<stop stop-color="#C4CFDB"/>
<stop offset="1" stop-color="#FFFFFC"/>
</linearGradient>
<linearGradient id="paint38_linear" x1="214.63" y1="63.5669" x2="214.463" y2="64.8228" gradientUnits="userSpaceOnUse">
<stop stop-color="#9BAFC2"/>
<stop offset="1" stop-color="#5E7D9C"/>
</linearGradient>
<linearGradient id="paint39_linear" x1="215.427" y1="59.4299" x2="215.282" y2="59.4303" gradientUnits="userSpaceOnUse">
<stop stop-color="#9BAFC2"/>
<stop offset="1" stop-color="#5E7D9C"/>
</linearGradient>
<linearGradient id="paint40_linear" x1="194.304" y1="104.783" x2="198.75" y2="104.783" gradientUnits="userSpaceOnUse">
<stop stop-color="#C4CFDB"/>
<stop offset="1" stop-color="#FFFFFC"/>
</linearGradient>
<linearGradient id="paint41_linear" x1="186.302" y1="107.866" x2="186.302" y2="117.98" gradientUnits="userSpaceOnUse">
<stop stop-color="#C4CFDB"/>
<stop offset="1" stop-color="#FFFFFC"/>
</linearGradient>
<linearGradient id="paint42_linear" x1="155.347" y1="106.996" x2="155.347" y2="111.839" gradientUnits="userSpaceOnUse">
<stop stop-color="#C4CFDB"/>
<stop offset="1" stop-color="#FFFFFC"/>
</linearGradient>
<linearGradient id="paint43_linear" x1="222.26" y1="109.879" x2="222.26" y2="107.397" gradientUnits="userSpaceOnUse">
<stop stop-color="#C4CFDB"/>
<stop offset="1" stop-color="#FFFFFC"/>
</linearGradient>
<linearGradient id="paint44_linear" x1="199.85" y1="110.256" x2="204.703" y2="110.256" gradientUnits="userSpaceOnUse">
<stop stop-color="#5381A6"/>
<stop offset="1" stop-color="#3B709A"/>
</linearGradient>
<linearGradient id="paint45_linear" x1="220.441" y1="110.256" x2="225.295" y2="110.256" gradientUnits="userSpaceOnUse">
<stop stop-color="#5381A6"/>
<stop offset="1" stop-color="#3B709A"/>
</linearGradient>
<linearGradient id="paint46_linear" x1="190.649" y1="91.2094" x2="195.336" y2="94.6658" gradientUnits="userSpaceOnUse">
<stop stop-color="#3372A3"/>
<stop offset="1" stop-color="#498AB8"/>
</linearGradient>
<linearGradient id="paint47_linear" x1="189.833" y1="94.9617" x2="192.903" y2="97.4953" gradientUnits="userSpaceOnUse">
<stop stop-color="#3372A3"/>
<stop offset="1" stop-color="#498AB8"/>
</linearGradient>
<linearGradient id="paint48_linear" x1="106.976" y1="105.792" x2="104.69" y2="105.801" gradientUnits="userSpaceOnUse">
<stop stop-color="#D2DBE3"/>
<stop offset="1" stop-color="#A3B5C6"/>
</linearGradient>
<linearGradient id="paint49_linear" x1="111.727" y1="103.924" x2="109.67" y2="103.932" gradientUnits="userSpaceOnUse">
<stop stop-color="#D2DBE3"/>
<stop offset="1" stop-color="#A3B5C6"/>
</linearGradient>
<linearGradient id="paint50_linear" x1="74.0493" y1="94.9486" x2="74.0493" y2="114.956" gradientUnits="userSpaceOnUse">
<stop stop-color="#F3F5F8"/>
<stop offset="1" stop-color="#E3F0F5"/>
</linearGradient>
<linearGradient id="paint51_linear" x1="67.6168" y1="114.831" x2="67.6168" y2="117.198" gradientUnits="userSpaceOnUse">
<stop stop-color="#F3F5F8"/>
<stop offset="1" stop-color="#E3F0F5"/>
</linearGradient>
<linearGradient id="paint52_linear" x1="95.6439" y1="110.447" x2="95.6439" y2="114.44" gradientUnits="userSpaceOnUse">
<stop stop-color="#C4CFDB"/>
<stop offset="1" stop-color="#FFFFFC"/>
</linearGradient>
<linearGradient id="paint53_linear" x1="69.1204" y1="110.447" x2="69.1204" y2="114.44" gradientUnits="userSpaceOnUse">
<stop stop-color="#C4CFDB"/>
<stop offset="1" stop-color="#FFFFFC"/>
</linearGradient>
<linearGradient id="paint54_linear" x1="95.918" y1="111.14" x2="95.918" y2="106.605" gradientUnits="userSpaceOnUse">
<stop stop-color="#C4CFDB"/>
<stop offset="1" stop-color="#FFFFFC"/>
</linearGradient>
<linearGradient id="paint55_linear" x1="60.4964" y1="98.3705" x2="60.7134" y2="110.803" gradientUnits="userSpaceOnUse">
<stop stop-color="#3372A3"/>
<stop offset="1" stop-color="#498AB8"/>
</linearGradient>
<linearGradient id="paint56_linear" x1="85.04" y1="96.9816" x2="90.6909" y2="96.9816" gradientUnits="userSpaceOnUse">
<stop stop-color="#5381A6"/>
<stop offset="1" stop-color="#3B709A"/>
</linearGradient>
<linearGradient id="paint57_linear" x1="99.5952" y1="101.297" x2="107.434" y2="105.431" gradientUnits="userSpaceOnUse">
<stop stop-color="#3372A3"/>
<stop offset="1" stop-color="#498AB8"/>
</linearGradient>
<linearGradient id="paint58_linear" x1="98.8664" y1="102.505" x2="106.677" y2="105.878" gradientUnits="userSpaceOnUse">
<stop stop-color="#3372A3"/>
<stop offset="1" stop-color="#498AB8"/>
</linearGradient>
<linearGradient id="paint59_linear" x1="106.082" y1="107.306" x2="106.35" y2="105.974" gradientUnits="userSpaceOnUse">
<stop stop-color="#C4CFDB"/>
<stop offset="1" stop-color="#FFFFFC"/>
</linearGradient>
<linearGradient id="paint60_linear" x1="108.093" y1="107.419" x2="108.419" y2="106.111" gradientUnits="userSpaceOnUse">
<stop stop-color="#C4CFDB"/>
<stop offset="1" stop-color="#FFFFFC"/>
</linearGradient>
<linearGradient id="paint61_linear" x1="102.607" y1="112.609" x2="104.79" y2="113.075" gradientUnits="userSpaceOnUse">
<stop stop-color="#F3F5F8"/>
<stop offset="1" stop-color="#E3F0F5"/>
</linearGradient>
<linearGradient id="paint62_linear" x1="109.177" y1="109.551" x2="110.989" y2="110.194" gradientUnits="userSpaceOnUse">
<stop stop-color="#F3F5F8"/>
<stop offset="1" stop-color="#E3F0F5"/>
</linearGradient>
<linearGradient id="paint63_linear" x1="109.149" y1="113.328" x2="109.165" y2="112.06" gradientUnits="userSpaceOnUse">
<stop stop-color="#F3F5F8"/>
<stop offset="1" stop-color="#E3F0F5"/>
</linearGradient>
<linearGradient id="paint64_linear" x1="105.388" y1="115.149" x2="105.388" y2="117.026" gradientUnits="userSpaceOnUse">
<stop stop-color="#F3F5F8"/>
<stop offset="1" stop-color="#CBD5DF"/>
</linearGradient>
<linearGradient id="paint65_linear" x1="94.3708" y1="115.842" x2="94.3708" y2="112.073" gradientUnits="userSpaceOnUse">
<stop stop-color="#F3F5F8"/>
<stop offset="1" stop-color="#E3F0F5"/>
</linearGradient>
<linearGradient id="paint66_linear" x1="71.8773" y1="103.675" x2="71.8773" y2="108.638" gradientUnits="userSpaceOnUse">
<stop stop-color="#FECD89"/>
<stop offset="1" stop-color="#EE7014"/>
</linearGradient>
<linearGradient id="paint67_linear" x1="95.8411" y1="103.675" x2="95.8411" y2="108.638" gradientUnits="userSpaceOnUse">
<stop stop-color="#FECD89"/>
<stop offset="1" stop-color="#EE7014"/>
</linearGradient>
<linearGradient id="paint68_linear" x1="112.036" y1="100.61" x2="115.018" y2="100.61" gradientUnits="userSpaceOnUse">
<stop stop-color="#3372A3"/>
<stop offset="1" stop-color="#498AB8"/>
</linearGradient>
<linearGradient id="paint69_linear" x1="122.428" y1="115.665" x2="122.514" y2="115.221" gradientUnits="userSpaceOnUse">
<stop stop-color="#FECD89"/>
<stop offset="1" stop-color="#EE7014"/>
</linearGradient>
<linearGradient id="paint70_linear" x1="235.226" y1="151.39" x2="223.721" y2="151.39" gradientUnits="userSpaceOnUse">
<stop stop-color="#286B9E"/>
<stop offset="1" stop-color="#4588B6"/>
</linearGradient>
<linearGradient id="paint71_linear" x1="85.6273" y1="156.914" x2="97.1376" y2="156.914" gradientUnits="userSpaceOnUse">
<stop stop-color="#286B9E"/>
<stop offset="1" stop-color="#4588B6"/>
</linearGradient>
<linearGradient id="paint72_linear" x1="120.024" y1="120.943" x2="104.525" y2="215.531" gradientUnits="userSpaceOnUse">
<stop stop-color="#C5D7E5"/>
<stop offset="1" stop-color="#6FA8CD"/>
</linearGradient>
<linearGradient id="paint73_linear" x1="-5002.71" y1="151.089" x2="-4990.78" y2="199.345" gradientUnits="userSpaceOnUse">
<stop stop-color="#286B9E"/>
<stop offset="1" stop-color="#4588B6"/>
</linearGradient>
<linearGradient id="paint74_linear" x1="-4993.07" y1="164.289" x2="-4979.43" y2="164.289" gradientUnits="userSpaceOnUse">
<stop stop-color="#286B9E"/>
<stop offset="1" stop-color="#4588B6"/>
</linearGradient>
<linearGradient id="paint75_linear" x1="97.8818" y1="164.289" x2="111.519" y2="164.289" gradientUnits="userSpaceOnUse">
<stop stop-color="#286B9E"/>
<stop offset="1" stop-color="#4588B6"/>
</linearGradient>
<linearGradient id="paint76_linear" x1="247.961" y1="204.296" x2="247.961" y2="189.1" gradientUnits="userSpaceOnUse">
<stop stop-color="#A0C6DE"/>
<stop offset="1" stop-color="#5398C3"/>
</linearGradient>
<linearGradient id="paint77_linear" x1="263.532" y1="203.854" x2="98.5092" y2="203.854" gradientUnits="userSpaceOnUse">
<stop stop-color="#6FA8CD"/>
<stop offset="0.55" stop-color="#C5D7E5"/>
<stop offset="1" stop-color="#6FA8CD"/>
</linearGradient>
<linearGradient id="paint78_linear" x1="261.235" y1="161.325" x2="204.572" y2="266.153" gradientUnits="userSpaceOnUse">
<stop stop-color="#6FA8CD"/>
<stop offset="0.41" stop-color="#C5D7E5"/>
<stop offset="1" stop-color="#6FA8CD"/>
</linearGradient>
</defs>
</svg>
